<mxfile host="app.diagrams.net" modified="2024-07-04T12:59:23.768Z" agent="Mozilla/5.0 (Windows NT 10.0; Win64; x64) AppleWebKit/537.36 (KHTML, like Gecko) Chrome/126.0.0.0 Safari/537.36" version="24.6.4" etag="VKRzSXJu6SLmiCZ1W0ob" type="github">
  <diagram name="Page-1" id="Xi3ZWl1mVw7P9IKyOs9R">
    <mxGraphModel>
      <root>
        <mxCell id="0" />
        <mxCell id="1" parent="0" />
      </root>
    </mxGraphModel>
  </diagram>
</mxfile>
